<?xml version="1.0" encoding="UTF-8"?>
<svg width="449px" height="132px" viewBox="0 0 449 132" version="1.1" xmlns="http://www.w3.org/2000/svg" xmlns:xlink="http://www.w3.org/1999/xlink">
    <title>Group 3</title>
    <g id="Page-1" stroke="none" stroke-width="1" fill="none" fill-rule="evenodd">
        <g id="Group-3">
            <rect id="Rectangle-Copy" stroke="#B0B1B2" stroke-width="5" fill="#000000" x="2.5" y="2.5" width="444" height="127" rx="22"></rect>
            <g id="Group-3-Copy" transform="translate(41.000000, 17.000000)" fill="#FFFFFF" fill-rule="nonzero">
                <g id="Group">
                    <g id="Path">
                        <path d="M58.1762732,45.53 C58.0752732,34.717 67.0322732,29.452 67.4412732,29.209 C62.3732732,21.809 54.5082732,20.803 51.7472732,20.722 C45.1482732,20.03 38.7432732,24.678 35.3872732,24.678 C31.9582732,24.678 26.7692732,20.793 21.1952732,20.905 C14.0122732,21.021 7.29127319,25.178 3.61027319,31.632 C-3.99172681,44.797 1.67727319,64.142 8.96027319,74.79 C12.6062732,79.999 16.8652732,85.82 22.4382732,85.612 C27.8892732,85.385 29.9242732,82.139 36.5082732,82.139 C43.0322732,82.139 44.9452732,85.612 50.6302732,85.482 C56.4822732,85.386 60.1632732,80.246 63.6792732,74.986 C67.8962732,69.014 69.5862732,63.132 69.6522732,62.828 C69.5152732,62.782 58.2872732,58.498 58.1762732,45.53"></path>
                        <path d="M47.4352732,13.723 C50.3682732,10.056 52.3802732,5.062 51.8142732,1.42108547e-14 C47.5712732,0.188 42.2662732,2.934 39.2102732,6.524 C36.5042732,9.685 34.0822732,14.869 34.7092732,19.74 C39.4832732,20.095 44.3742732,17.333 47.4352732,13.723"></path>
                    </g>
                    <g transform="translate(99.402273, 39.560000)">
                        <path d="M37.587,45.193 L29.992,45.193 L25.828,32.109 L11.366,32.109 L7.397,45.193 L5.68434189e-14,45.193 L14.341,0.664 L23.186,0.664 L37.587,45.193 Z M24.577,26.621 L20.816,14.993 C20.412,13.808 19.666,11.009 18.567,6.608 L18.435,6.608 C17.993,8.504 17.286,11.298 16.317,14.993 L12.617,26.621 L24.577,26.621 Z" id="Shape"></path>
                        <path d="M74.453,28.739 C74.453,34.2 72.98,38.517 70.026,41.689 C67.383,44.508 64.1,45.914 60.187,45.914 C55.957,45.914 52.916,44.391 51.066,41.356 L50.94,41.356 L50.94,58.267 L43.8,58.267 L43.8,23.651 C43.8,20.218 43.714,16.699 43.537,13.082 L49.81,13.082 L50.208,18.171 L50.344,18.171 C52.72,14.337 56.335,12.422 61.176,12.422 C64.957,12.422 68.125,13.921 70.656,16.916 C73.187,19.916 74.453,23.854 74.453,28.739 M67.186,29.001 C67.186,25.875 66.48,23.299 65.073,21.271 C63.53,19.159 61.458,18.099 58.866,18.099 C57.101,18.099 55.498,18.689 54.076,19.849 C52.643,21.025 51.706,22.551 51.267,24.447 C51.045,25.33 50.939,26.051 50.939,26.62 L50.939,31.975 C50.939,34.31 51.65,36.281 53.078,37.884 C54.515,39.499 56.375,40.295 58.664,40.295 C61.352,40.295 63.445,39.267 64.937,37.194 C66.44,35.122 67.186,32.395 67.186,29.001" id="Shape"></path>
                        <path d="M111.378,28.739 C111.378,34.2 109.906,38.517 106.951,41.689 C104.309,44.508 101.032,45.914 97.109,45.914 C92.883,45.914 89.848,44.391 87.997,41.356 L87.866,41.356 L87.866,58.267 L80.731,58.267 L80.731,23.651 C80.731,20.218 80.64,16.699 80.469,13.082 L86.741,13.082 L87.14,18.171 L87.277,18.171 C89.646,14.337 93.256,12.422 98.106,12.422 C101.889,12.422 105.051,13.921 107.586,16.916 C110.117,19.916 111.378,23.854 111.378,28.739 M104.117,29.001 C104.117,25.875 103.411,23.299 101.998,21.271 C100.455,19.159 98.388,18.099 95.791,18.099 C94.026,18.099 92.427,18.689 91.001,19.849 C89.57,21.025 88.636,22.551 88.198,24.447 C87.971,25.33 87.865,26.051 87.865,26.62 L87.865,31.975 C87.865,34.31 88.575,36.281 90.008,37.884 C91.441,39.499 93.297,40.295 95.595,40.295 C98.277,40.295 100.375,39.267 101.868,37.194 C103.36,35.122 104.117,32.395 104.117,29.001" id="Shape"></path>
                        <path d="M152.67,32.703 C152.67,36.49 151.359,39.571 148.712,41.952 C145.812,44.554 141.773,45.848 136.589,45.848 C131.8,45.848 127.953,44.925 125.043,43.077 L126.697,37.131 C129.833,39.026 133.267,39.969 137.013,39.969 C139.701,39.969 141.793,39.365 143.295,38.155 C144.789,36.94 145.535,35.316 145.535,33.289 C145.535,31.484 144.919,29.956 143.689,28.724 C142.458,27.485 140.401,26.341 137.537,25.281 C129.741,22.367 125.85,18.111 125.85,12.51 C125.85,8.848 127.211,5.847 129.945,3.514 C132.672,1.174 136.307,-2.84217094e-14 140.846,-2.84217094e-14 C144.899,-2.84217094e-14 148.268,0.71 150.951,2.116 L149.171,7.93 C146.659,6.568 143.821,5.883 140.645,5.883 C138.134,5.883 136.177,6.497 134.77,7.733 C133.587,8.833 132.99,10.179 132.99,11.763 C132.99,13.522 133.667,14.98 135.033,16.119 C136.218,17.178 138.377,18.323 141.507,19.559 C145.339,21.102 148.152,22.906 149.963,24.973 C151.766,27.046 152.67,29.622 152.67,32.703" id="Path"></path>
                        <path d="M176.254,18.433 L168.393,18.433 L168.393,34.024 C168.393,37.988 169.779,39.969 172.559,39.969 C173.828,39.969 174.887,39.859 175.724,39.641 L175.92,45.057 C174.519,45.585 172.664,45.848 170.375,45.848 C167.555,45.848 165.352,44.991 163.769,43.277 C162.185,41.558 161.39,38.668 161.39,34.619 L161.39,18.432 L156.699,18.432 L156.699,13.078 L161.39,13.078 L161.39,7.203 L168.393,5.085 L168.393,13.078 L176.254,13.078 L176.254,18.433 Z" id="Path"></path>
                        <path d="M211.732,28.871 C211.732,33.806 210.325,37.856 207.506,41.028 C204.55,44.29 200.629,45.914 195.747,45.914 C191.028,45.914 187.281,44.351 184.482,41.223 C181.684,38.097 180.287,34.155 180.287,29.405 C180.287,24.422 181.725,20.349 184.614,17.183 C187.494,14.006 191.381,12.422 196.272,12.422 C200.981,12.422 204.774,13.986 207.636,17.113 C210.37,20.157 211.732,24.07 211.732,28.871 M204.33,29.102 C204.33,26.143 203.694,23.606 202.413,21.484 C200.921,18.922 198.783,17.64 196.01,17.64 C193.14,17.64 190.962,18.922 189.469,21.484 C188.189,23.606 187.559,26.188 187.559,29.239 C187.559,32.198 188.189,34.735 189.469,36.853 C191.007,39.414 193.166,40.694 195.949,40.694 C198.671,40.694 200.811,39.394 202.348,36.786 C203.669,34.624 204.33,32.063 204.33,29.102" id="Shape"></path>
                        <path d="M234.916,19.356 C234.211,19.23 233.465,19.16 232.673,19.16 C230.167,19.16 228.221,20.113 226.854,22.004 C225.669,23.679 225.074,25.792 225.074,28.343 L225.074,45.189 L217.944,45.189 L218.005,23.194 C218.005,19.493 217.914,16.123 217.744,13.083 L223.955,13.083 L224.218,19.23 L224.41,19.23 C225.161,17.117 226.356,15.418 227.98,14.142 C229.563,12.997 231.288,12.421 233.138,12.421 C233.793,12.421 234.393,12.466 234.917,12.548 L234.917,19.356 L234.916,19.356 Z" id="Path"></path>
                        <path d="M266.82,27.615 C266.82,28.897 266.734,29.97 266.563,30.853 L245.163,30.853 C245.244,34.024 246.282,36.449 248.264,38.124 C250.064,39.622 252.403,40.362 255.268,40.362 C258.428,40.362 261.318,39.858 263.92,38.845 L265.039,43.801 C262.004,45.122 258.414,45.787 254.268,45.787 C249.296,45.787 245.383,44.319 242.544,41.389 C239.71,38.464 238.284,34.527 238.284,29.596 C238.284,24.755 239.604,20.722 242.252,17.504 C245.02,14.07 248.767,12.356 253.476,12.356 C258.1,12.356 261.61,14.07 263.991,17.504 C265.877,20.238 266.82,23.606 266.82,27.615 M260.018,25.764 C260.069,23.655 259.604,21.826 258.636,20.283 C257.401,18.301 255.499,17.309 252.948,17.309 C250.619,17.309 248.723,18.282 247.271,20.218 C246.081,21.761 245.375,23.606 245.163,25.764 L260.018,25.764 Z" id="Shape"></path>
                    </g>
                </g>
                <g id="Group" transform="translate(101.784273, 1.282000)">
                    <path d="M5.999,16.86 L4.118,23.053 L-2.84217094e-14,23.053 L7.004,1.2 L12.094,1.2 L19.194,23.053 L14.914,23.053 L12.936,16.86 L5.999,16.86 Z M12.256,13.844 L10.537,8.462 C10.116,7.132 9.759,5.641 9.435,4.377 L9.37,4.377 C9.047,5.642 8.722,7.165 8.332,8.462 L6.646,13.844 L12.256,13.844 Z" id="Shape"></path>
                    <path d="M25.155,7.262 L27.716,15.271 C28.17,16.664 28.494,17.929 28.786,19.226 L28.883,19.226 C29.175,17.929 29.531,16.697 29.953,15.271 L32.481,7.262 L36.663,7.262 L30.633,23.052 L26.71,23.052 L20.842,7.262 L25.155,7.262 Z" id="Path"></path>
                    <path d="M52.579,19.259 C52.579,20.685 52.644,22.079 52.839,23.052 L49.24,23.052 L48.949,21.301 L48.852,21.301 C47.912,22.532 46.258,23.408 44.183,23.408 C41.006,23.408 39.223,21.106 39.223,18.706 C39.223,14.751 42.758,12.708 48.593,12.74 L48.593,12.48 C48.593,11.443 48.171,9.724 45.383,9.724 C43.827,9.724 42.205,10.21 41.136,10.892 L40.358,8.298 C41.525,7.585 43.568,6.904 46.064,6.904 C51.123,6.904 52.581,10.113 52.581,13.583 L52.581,19.259 L52.579,19.259 Z M48.689,15.335 C45.869,15.303 43.177,15.887 43.177,18.286 C43.177,19.842 44.182,20.555 45.447,20.555 C47.068,20.555 48.202,19.518 48.592,18.383 C48.689,18.092 48.689,17.8 48.689,17.508 L48.689,15.335 L48.689,15.335 Z" id="Shape"></path>
                    <path d="M60.194,4.992 C58.864,4.992 57.989,4.02 57.989,2.852 C57.989,1.621 58.897,0.681 60.226,0.681 C61.588,0.681 62.431,1.621 62.463,2.852 C62.463,4.019 61.588,4.992 60.226,4.992 L60.194,4.992 Z M58.216,23.052 L58.216,7.262 L62.204,7.262 L62.204,23.052 L58.216,23.052 Z" id="Shape"></path>
                    <polygon id="Path" points="67.941 0 71.929 0 71.929 23.053 67.941 23.053"></polygon>
                    <path d="M89.954,19.259 C89.954,20.685 90.019,22.079 90.212,23.052 L86.614,23.052 L86.322,21.301 L86.225,21.301 C85.286,22.532 83.633,23.408 81.557,23.408 C78.38,23.408 76.597,21.106 76.597,18.706 C76.597,14.751 80.131,12.708 85.966,12.74 L85.966,12.48 C85.966,11.443 85.546,9.724 82.757,9.724 C81.201,9.724 79.58,10.21 78.51,10.892 L77.732,8.298 C78.9,7.585 80.942,6.904 83.439,6.904 C88.496,6.904 89.956,10.113 89.956,13.583 L89.956,19.259 L89.954,19.259 Z M86.061,15.335 C83.242,15.303 80.55,15.887 80.55,18.286 C80.55,19.842 81.555,20.555 82.82,20.555 C84.441,20.555 85.577,19.518 85.964,18.383 C86.061,18.092 86.061,17.8 86.061,17.508 L86.061,15.335 L86.061,15.335 Z" id="Shape"></path>
                    <path d="M95.591,-1.42108547e-14 L99.579,-1.42108547e-14 L99.579,9.435 L99.644,9.435 C100.618,7.912 102.336,6.907 104.703,6.907 C108.561,6.907 111.316,10.116 111.283,14.915 C111.283,20.588 107.685,23.41 104.119,23.41 C102.076,23.41 100.261,22.631 99.125,20.686 L99.06,20.686 L98.865,23.053 L95.462,23.053 C95.527,21.983 95.592,20.233 95.592,18.643 L95.592,-1.42108547e-14 L95.591,-1.42108547e-14 Z M99.578,16.535 C99.578,16.859 99.61,17.184 99.675,17.475 C100.097,19.097 101.49,20.264 103.208,20.264 C105.705,20.264 107.228,18.286 107.228,15.076 C107.228,12.287 105.899,10.018 103.24,10.018 C101.619,10.018 100.128,11.184 99.706,12.936 C99.641,13.227 99.576,13.584 99.576,13.973 L99.576,16.535 L99.578,16.535 Z" id="Shape"></path>
                    <polygon id="Path" points="115.978 0 119.966 0 119.966 23.053 115.978 23.053"></polygon>
                    <path d="M128.556,16.276 C128.653,19.129 130.889,20.361 133.418,20.361 C135.266,20.361 136.564,20.069 137.795,19.647 L138.379,22.371 C137.018,22.954 135.135,23.376 132.868,23.376 C127.744,23.376 124.728,20.231 124.728,15.399 C124.728,11.023 127.387,6.905 132.446,6.905 C137.568,6.905 139.253,11.12 139.253,14.589 C139.253,15.334 139.188,15.919 139.125,16.276 L128.556,16.276 Z M135.493,13.487 C135.525,12.028 134.878,9.629 132.219,9.629 C129.755,9.629 128.718,11.866 128.556,13.487 L135.493,13.487 Z" id="Shape"></path>
                    <path d="M158.929,23.409 C154.487,23.409 151.016,20.362 151.016,15.271 C151.016,10.082 154.422,6.906 159.188,6.906 C163.888,6.906 167.034,10.212 167.034,15.012 C167.034,20.815 162.949,23.409 158.961,23.409 L158.929,23.409 L158.929,23.409 Z M159.059,20.523 C161.327,20.523 162.917,18.319 162.917,15.109 C162.917,12.644 161.814,9.791 159.091,9.791 C156.269,9.791 155.134,12.547 155.134,15.173 C155.134,18.221 156.659,20.522 159.026,20.522 L159.059,20.522 L159.059,20.523 Z" id="Shape"></path>
                    <path d="M171.73,11.964 C171.73,10.148 171.665,8.624 171.6,7.262 L175.069,7.262 L175.264,9.629 L175.361,9.629 C176.075,8.397 177.793,6.906 180.42,6.906 C183.175,6.906 186.028,8.689 186.028,13.682 L186.028,23.052 L182.04,23.052 L182.04,14.136 C182.04,11.866 181.196,10.147 179.024,10.147 C177.436,10.147 176.334,11.282 175.913,12.482 C175.783,12.807 175.718,13.292 175.718,13.747 L175.718,23.052 L171.73,23.052 L171.73,11.964 Z" id="Path"></path>
                    <path d="M204.403,3.209 L204.403,7.262 L208.196,7.262 L208.196,10.245 L204.403,10.245 L204.403,17.184 C204.403,19.129 204.922,20.102 206.446,20.102 C207.158,20.102 207.547,20.069 208.002,19.94 L208.067,22.955 C207.483,23.182 206.414,23.377 205.181,23.377 C203.69,23.377 202.491,22.89 201.745,22.08 C200.869,21.172 200.481,19.713 200.481,17.638 L200.481,10.246 L198.244,10.246 L198.244,7.263 L200.481,7.263 L200.481,4.313 L204.403,3.209 Z" id="Path"></path>
                    <path d="M212.636,0 L216.624,0 L216.624,9.403 L216.689,9.403 C217.176,8.658 217.855,8.041 218.667,7.62 C219.478,7.166 220.418,6.907 221.424,6.907 C224.114,6.907 226.935,8.69 226.935,13.748 L226.935,23.053 L222.947,23.053 L222.947,14.17 C222.947,11.9 222.103,10.149 219.898,10.149 C218.342,10.149 217.241,11.186 216.787,12.386 C216.657,12.743 216.625,13.165 216.625,13.586 L216.625,23.053 L212.637,23.053 L212.637,0 L212.636,0 Z" id="Path"></path>
                    <path d="M235.423,16.276 C235.52,19.129 237.756,20.361 240.285,20.361 C242.133,20.361 243.431,20.069 244.662,19.647 L245.246,22.371 C243.885,22.954 242.003,23.376 239.735,23.376 C234.611,23.376 231.595,20.231 231.595,15.399 C231.595,11.023 234.254,6.905 239.313,6.905 C244.435,6.905 246.12,11.12 246.12,14.589 C246.12,15.334 246.055,15.919 245.992,16.276 L235.423,16.276 Z M242.36,13.487 C242.392,12.028 241.745,9.629 239.086,9.629 C236.622,9.629 235.585,11.866 235.423,13.487 L242.36,13.487 Z" id="Shape"></path>
                </g>
            </g>
        </g>
    </g>
</svg>