<?xml version="1.0" encoding="UTF-8"?>
<svg width="449px" height="132px" viewBox="0 0 449 132" version="1.1" xmlns="http://www.w3.org/2000/svg" xmlns:xlink="http://www.w3.org/1999/xlink">
    <title>Group 4</title>
    <defs>
        <linearGradient x1="80.7471319%" y1="50.0017511%" x2="-157.297062%" y2="50.0017511%" id="linearGradient-1">
            <stop stop-color="#FFDF00" offset="0%"></stop>
            <stop stop-color="#FBBC0E" offset="40.87%"></stop>
            <stop stop-color="#F9A418" offset="77.54%"></stop>
            <stop stop-color="#F89B1C" offset="100%"></stop>
        </linearGradient>
        <linearGradient x1="86.2454666%" y1="30.900535%" x2="-50.1432726%" y2="136.018132%" id="linearGradient-2">
            <stop stop-color="#EE4447" offset="0%"></stop>
            <stop stop-color="#C5166C" offset="100%"></stop>
        </linearGradient>
        <linearGradient x1="-50.7483079%" y1="-36.4824084%" x2="60.6075513%" y2="49.3395933%" id="linearGradient-3">
            <stop stop-color="#269E6F" offset="0%"></stop>
            <stop stop-color="#2BA06F" offset="5.09%"></stop>
            <stop stop-color="#53B26B" offset="46.63%"></stop>
            <stop stop-color="#6BBD69" offset="79.71%"></stop>
            <stop stop-color="#74C168" offset="100%"></stop>
        </linearGradient>
    </defs>
    <g id="Page-1" stroke="none" stroke-width="1" fill="none" fill-rule="evenodd">
        <g id="Group-4">
            <rect id="Rectangle" stroke="#B0B1B2" stroke-width="5" fill="#000000" x="2.5" y="2.5" width="444" height="127" rx="22"></rect>
            <g id="Group-2" transform="translate(31.000000, 21.000000)" fill-rule="nonzero">
                <g id="Group" transform="translate(105.183000, 0.000000)" fill="#FFFFFF">
                    <path d="M14.66,4.365 C13.405,3.254 11.751,2.539 9.926,2.539 C5.819,2.539 2.652,5.933 2.652,10.099 C2.652,14.263 5.818,17.628 9.926,17.628 C13.463,17.628 16.029,15.575 16.201,12.322 L10.611,12.322 L10.611,10.012 L19.225,10.012 C19.225,16.917 15.545,20.168 9.927,20.168 C4.336,20.168 2.84217094e-14,15.661 2.84217094e-14,10.099 C2.84217094e-14,4.507 4.336,0 9.927,0 C12.523,0 14.861,1 16.573,2.596 L14.66,4.365 Z" id="Path"></path>
                    <polygon id="Path" points="34.488 0.229 34.488 2.71 25.502 2.71 25.502 8.986 33.347 8.986 33.347 11.469 25.502 11.469 25.502 17.402 34.773 17.402 34.773 19.883 22.85 19.883 22.85 0.23 34.488 0.23"></polygon>
                    <polygon id="Path" points="51.69 0.229 51.69 2.738 45.728 2.738 45.728 19.882 43.048 19.882 43.048 2.738 37.086 2.738 37.086 0.229"></polygon>
                    <polygon id="Path" points="64.416 0.229 64.416 19.882 61.764 19.882 61.764 0.229"></polygon>
                    <polygon id="Path" points="82.501 0.229 82.501 2.738 76.54 2.738 76.54 19.882 73.86 19.882 73.86 2.738 67.898 2.738 67.898 0.229"></polygon>
                    <path d="M101.217,0 C106.836,0 111.201,4.507 111.201,10.099 C111.201,15.661 106.836,20.168 101.217,20.168 C95.627,20.168 91.29,15.661 91.29,10.099 C91.29,4.507 95.627,0 101.217,0 Z M101.217,17.6 C105.353,17.6 108.519,14.263 108.519,10.099 C108.519,5.933 105.353,2.568 101.217,2.568 C97.11,2.568 93.943,5.933 93.943,10.099 C93.943,14.264 97.11,17.6 101.217,17.6 Z" id="Shape"></path>
                    <polygon id="Path" points="126.892 19.882 117.937 5.079 117.937 19.882 115.284 19.882 115.284 0.229 117.909 0.229 126.779 14.919 126.779 0.229 129.432 0.229 129.432 19.882"></polygon>
                </g>
                <path d="M194.307,49.456 C186.449,49.456 180.044,55.43 180.044,63.664 C180.044,71.845 186.448,77.873 194.307,77.873 C202.165,77.873 208.569,71.845 208.569,63.664 C208.569,55.43 202.164,49.456 194.307,49.456 Z M194.307,72.276 C190.001,72.276 186.288,68.724 186.288,63.665 C186.288,58.552 190.002,55.054 194.307,55.054 C198.612,55.054 202.326,58.552 202.326,63.665 C202.326,68.724 198.612,72.276 194.307,72.276 Z M163.193,49.456 C155.335,49.456 148.93,55.43 148.93,63.664 C148.93,71.845 155.335,77.873 163.193,77.873 C171.051,77.873 177.455,71.845 177.455,63.664 C177.456,55.43 171.051,49.456 163.193,49.456 Z M163.193,72.276 C158.887,72.276 155.174,68.724 155.174,63.665 C155.174,58.552 158.888,55.054 163.193,55.054 C167.499,55.054 171.212,58.552 171.212,63.665 C171.212,68.724 167.499,72.276 163.193,72.276 Z M126.182,53.816 L126.182,59.844 L140.606,59.844 C140.175,63.235 139.045,65.71 137.323,67.433 C135.224,69.532 131.941,71.846 126.182,71.846 C117.302,71.846 110.359,64.688 110.359,55.808 C110.359,46.928 117.302,39.77 126.182,39.77 C130.972,39.77 134.471,41.654 137.054,44.076 L141.306,39.824 C137.7,36.38 132.91,33.742 126.182,33.742 C114.019,33.742 103.792,43.645 103.792,55.808 C103.792,67.972 114.018,77.875 126.182,77.875 C132.748,77.875 137.7,75.722 141.575,71.686 C145.558,67.703 146.796,62.106 146.796,57.585 C146.796,56.186 146.688,54.894 146.473,53.818 L126.182,53.818 L126.182,53.816 Z M277.544,58.498 C276.36,55.323 272.754,49.456 265.381,49.456 C258.061,49.456 251.98,55.215 251.98,63.664 C251.98,71.63 258.008,77.873 266.081,77.873 C272.593,77.873 276.361,73.89 277.921,71.576 L273.077,68.347 C271.462,70.715 269.256,72.276 266.081,72.276 C262.905,72.276 260.645,70.823 259.192,67.97 L278.191,60.112 L277.544,58.498 Z M258.169,63.234 C258.007,57.744 262.421,54.946 265.596,54.946 C268.072,54.946 270.171,56.184 270.871,57.96 L258.169,63.234 Z M242.722,77.012 L248.965,77.012 L248.965,35.248 L242.722,35.248 L242.722,77.012 Z M232.496,52.632 L232.281,52.632 C230.882,50.964 228.191,49.457 224.8,49.457 C217.696,49.457 211.184,55.7 211.184,63.719 C211.184,71.685 217.696,77.874 224.8,77.874 C228.191,77.874 230.882,76.367 232.281,74.645 L232.496,74.645 L232.496,76.69 C232.496,82.126 229.59,85.032 224.907,85.032 C221.086,85.032 218.718,82.287 217.749,79.973 L212.313,82.234 C213.874,86.001 218.018,90.63 224.907,90.63 C232.227,90.63 238.416,86.324 238.416,75.829 L238.416,50.318 L232.496,50.318 L232.496,52.632 Z M225.339,72.276 C221.033,72.276 217.427,68.67 217.427,63.718 C217.427,58.713 221.033,55.053 225.339,55.053 C229.591,55.053 232.927,58.713 232.927,63.718 C232.927,68.67 229.59,72.276 225.339,72.276 Z M306.788,35.248 L291.851,35.248 L291.851,77.012 L298.084,77.012 L298.084,61.189 L306.788,61.189 C313.698,61.189 320.489,56.187 320.489,48.219 C320.489,40.251 313.698,35.248 306.788,35.248 Z M306.949,55.377 L298.084,55.377 L298.084,41.061 L306.949,41.061 C311.61,41.061 314.256,44.92 314.256,48.219 C314.256,51.456 311.61,55.377 306.949,55.377 Z M345.473,49.379 C340.96,49.379 336.285,51.367 334.351,55.773 L339.885,58.083 C341.067,55.773 343.27,55.02 345.58,55.02 C348.804,55.02 352.081,56.954 352.135,60.393 L352.135,60.823 C351.007,60.178 348.589,59.211 345.634,59.211 C339.67,59.211 333.599,62.489 333.599,68.614 C333.599,74.202 338.488,77.802 343.969,77.802 C348.16,77.802 350.47,75.921 351.921,73.719 L352.136,73.719 L352.136,76.943 L358.154,76.943 L358.154,60.932 C358.153,53.516 352.619,49.379 345.473,49.379 Z M344.721,72.268 C342.679,72.268 339.832,71.247 339.832,68.722 C339.832,65.498 343.378,64.262 346.441,64.262 C349.181,64.262 350.471,64.853 352.136,65.659 C351.652,69.528 348.321,72.268 344.721,72.268 Z M380.075,50.293 L372.929,68.4 L372.714,68.4 L365.3,50.293 L358.584,50.293 L369.706,75.6 L363.366,89.677 L369.867,89.677 L387.007,50.293 L380.075,50.293 Z M323.928,77.012 L330.16,77.012 L330.16,35.248 L323.928,35.248 L323.928,77.012 Z" id="Shape" fill="#FFFFFF"></path>
                <g id="Group" transform="translate(0.000000, 0.676760)">
                    <path d="M1.545,1.32723981 C0.573,2.35423981 0,3.94923981 0,6.01723981 L0,79.8392398 C0,81.9072398 0.573,83.5012398 1.545,84.5292398 L1.792,84.7702398 L43.145,43.4162398 L43.145,42.9282398 L43.145,42.4402398 L1.792,1.08623981 L1.545,1.32723981 Z" id="Path" fill="#5BC8F3"></path>
                    <path d="M56.929,57.2052398 L43.146,43.4152398 L43.146,42.9272398 L43.146,42.4392398 L56.934,28.6512398 L57.245,28.8282398 L73.577,38.1082398 C78.242,40.7592398 78.242,45.0962398 73.577,47.7462398 L57.245,57.0262398 L56.929,57.2052398 Z" id="Path" fill="url(#linearGradient-1)"></path>
                    <path d="M57.244,57.0262398 L43.146,42.9272398 L1.546,84.5282398 C3.084,86.1562398 5.623,86.3572398 8.483,84.7322398 L57.244,57.0262398" id="Path" fill="url(#linearGradient-2)"></path>
                    <path d="M57.244,28.8282398 L8.482,1.12223981 C5.622,-0.502760192 3.084,-0.300760192 1.545,1.32623981 L43.145,42.9272398 L57.244,28.8282398 Z" id="Path" fill="url(#linearGradient-3)"></path>
                </g>
            </g>
        </g>
    </g>
</svg>